[[{"midi_time":0,"actual_time":0,"note":36,"normalized_note":0,"velocity":97,"normalized_velocity":1,"on":1},{"midi_time":15360,"actual_time":0.42857142857142855,"note":36,"normalized_note":0,"velocity":97,"normalized_velocity":1,"on":1},{"midi_time":15360,"actual_time":0.42857142857142855,"note":45,"normalized_note":1,"velocity":97,"normalized_velocity":1,"on":1},{"midi_time":30720,"actual_time":0.8571428571428571,"note":36,"normalized_note":0,"velocity":97,"normalized_velocity":1,"on":1},{"midi_time":46080,"actual_time":1.2857142857142858,"note":36,"normalized_note":0,"velocity":97,"normalized_velocity":1,"on":1},{"midi_time":61440,"actual_time":1.7142857142857142,"note":36,"normalized_note":0,"velocity":97,"normalized_velocity":1,"on":1},{"midi_time":76800,"actual_time":2.142857142857143,"note":36,"normalized_note":0,"velocity":97,"normalized_velocity":1,"on":1},{"midi_time":76800,"actual_time":2.142857142857143,"note":45,"normalized_note":1,"velocity":97,"normalized_velocity":1,"on":1},{"midi_time":92160,"actual_time":2.5714285714285716,"note":36,"normalized_note":0,"velocity":97,"normalized_velocity":1,"on":1},{"midi_time":107520,"actual_time":3,"note":36,"normalized_note":0,"velocity":97,"normalized_velocity":1,"on":1},{"midi_time":107520,"actual_time":3,"note":45,"normalized_note":1,"velocity":97,"normalized_velocity":1,"on":1},{"midi_time":115200,"actual_time":3.2142857142857144,"note":44,"normalized_note":0.8888888888888888,"velocity":97,"normalized_velocity":1,"on":1},{"midi_time":122880,"actual_time":3.4285714285714284,"note":36,"normalized_note":0,"velocity":97,"normalized_velocity":1,"on":1},{"midi_time":122880,"actual_time":3.4285714285714284,"note":43,"normalized_note":0.7777777777777778,"velocity":97,"normalized_velocity":1,"on":1},{"midi_time":138240,"actual_time":3.857142857142857,"note":36,"normalized_note":0,"velocity":97,"normalized_velocity":1,"on":1},{"midi_time":138240,"actual_time":3.857142857142857,"note":37,"normalized_note":0.1111111111111111,"velocity":97,"normalized_velocity":1,"on":1},{"midi_time":138240,"actual_time":3.857142857142857,"note":45,"normalized_note":1,"velocity":97,"normalized_velocity":1,"on":1},{"midi_time":153600,"actual_time":4.285714285714286,"note":36,"normalized_note":0,"velocity":97,"normalized_velocity":1,"on":1},{"midi_time":161280,"actual_time":4.5,"note":44,"normalized_note":0.8888888888888888,"velocity":97,"normalized_velocity":1,"on":1},{"midi_time":168960,"actual_time":4.714285714285714,"note":36,"normalized_note":0,"velocity":97,"normalized_velocity":1,"on":1},{"midi_time":168960,"actual_time":4.714285714285714,"note":37,"normalized_note":0.1111111111111111,"velocity":97,"normalized_velocity":1,"on":1},{"midi_time":180480,"actual_time":5.035714285714286,"note":41,"normalized_note":0.5555555555555556,"velocity":97,"normalized_velocity":1,"on":1},{"midi_time":184320,"actual_time":5.142857142857143,"note":36,"normalized_note":0,"velocity":97,"normalized_velocity":1,"on":1},{"midi_time":184320,"actual_time":5.142857142857143,"note":43,"normalized_note":0.7777777777777778,"velocity":97,"normalized_velocity":1,"on":1},{"midi_time":199680,"actual_time":5.571428571428571,"note":36,"normalized_note":0,"velocity":97,"normalized_velocity":1,"on":1},{"midi_time":199680,"actual_time":5.571428571428571,"note":37,"normalized_note":0.1111111111111111,"velocity":97,"normalized_velocity":1,"on":1},{"midi_time":199680,"actual_time":5.571428571428571,"note":45,"normalized_note":1,"velocity":97,"normalized_velocity":1,"on":1},{"midi_time":215040,"actual_time":6,"note":36,"normalized_note":0,"velocity":97,"normalized_velocity":1,"on":1},{"midi_time":222720,"actual_time":6.214285714285714,"note":44,"normalized_note":0.8888888888888888,"velocity":97,"normalized_velocity":1,"on":1},{"midi_time":230400,"actual_time":6.428571428571429,"note":36,"normalized_note":0,"velocity":97,"normalized_velocity":1,"on":1},{"midi_time":230400,"actual_time":6.428571428571429,"note":37,"normalized_note":0.1111111111111111,"velocity":97,"normalized_velocity":1,"on":1},{"midi_time":241920,"actual_time":6.75,"note":41,"normalized_note":0.5555555555555556,"velocity":96,"normalized_velocity":0,"on":1},{"midi_time":245760,"actual_time":6.857142857142857,"note":36,"normalized_note":0,"velocity":97,"normalized_velocity":1,"on":1},{"midi_time":245760,"actual_time":6.857142857142857,"note":43,"normalized_note":0.7777777777777778,"velocity":97,"normalized_velocity":1,"on":1},{"midi_time":261120,"actual_time":7.285714285714286,"note":36,"normalized_note":0,"velocity":97,"normalized_velocity":1,"on":1},{"midi_time":261120,"actual_time":7.285714285714286,"note":37,"normalized_note":0.1111111111111111,"velocity":97,"normalized_velocity":1,"on":1},{"midi_time":261120,"actual_time":7.285714285714286,"note":45,"normalized_note":1,"velocity":97,"normalized_velocity":1,"on":1},{"midi_time":276480,"actual_time":7.714285714285714,"note":36,"normalized_note":0,"velocity":97,"normalized_velocity":1,"on":1},{"midi_time":284160,"actual_time":7.928571428571429,"note":44,"normalized_note":0.8888888888888888,"velocity":97,"normalized_velocity":1,"on":1},{"midi_time":291840,"actual_time":8.142857142857142,"note":36,"normalized_note":0,"velocity":97,"normalized_velocity":1,"on":1},{"midi_time":291840,"actual_time":8.142857142857142,"note":37,"normalized_note":0.1111111111111111,"velocity":97,"normalized_velocity":1,"on":1},{"midi_time":303360,"actual_time":8.464285714285714,"note":41,"normalized_note":0.5555555555555556,"velocity":97,"normalized_velocity":1,"on":1},{"midi_time":307200,"actual_time":8.571428571428571,"note":36,"normalized_note":0,"velocity":97,"normalized_velocity":1,"on":1},{"midi_time":307200,"actual_time":8.571428571428571,"note":43,"normalized_note":0.7777777777777778,"velocity":97,"normalized_velocity":1,"on":1},{"midi_time":322560,"actual_time":9,"note":36,"normalized_note":0,"velocity":97,"normalized_velocity":1,"on":1},{"midi_time":322560,"actual_time":9,"note":37,"normalized_note":0.1111111111111111,"velocity":97,"normalized_velocity":1,"on":1},{"midi_time":322560,"actual_time":9,"note":45,"normalized_note":1,"velocity":97,"normalized_velocity":1,"on":1},{"midi_time":337920,"actual_time":9.428571428571429,"note":36,"normalized_note":0,"velocity":97,"normalized_velocity":1,"on":1},{"midi_time":345600,"actual_time":9.642857142857142,"note":44,"normalized_note":0.8888888888888888,"velocity":97,"normalized_velocity":1,"on":1},{"midi_time":353280,"actual_time":9.857142857142858,"note":36,"normalized_note":0,"velocity":97,"normalized_velocity":1,"on":1},{"midi_time":353280,"actual_time":9.857142857142858,"note":37,"normalized_note":0.1111111111111111,"velocity":97,"normalized_velocity":1,"on":1},{"midi_time":364800,"actual_time":10.178571428571429,"note":41,"normalized_note":0.5555555555555556,"velocity":96,"normalized_velocity":0,"on":1},{"midi_time":368640,"actual_time":10.285714285714286,"note":36,"normalized_note":0,"velocity":97,"normalized_velocity":1,"on":1},{"midi_time":368640,"actual_time":10.285714285714286,"note":43,"normalized_note":0.7777777777777778,"velocity":97,"normalized_velocity":1,"on":1},{"midi_time":384000,"actual_time":10.714285714285714,"note":36,"normalized_note":0,"velocity":97,"normalized_velocity":1,"on":1},{"midi_time":384000,"actual_time":10.714285714285714,"note":37,"normalized_note":0.1111111111111111,"velocity":97,"normalized_velocity":1,"on":1},{"midi_time":384000,"actual_time":10.714285714285714,"note":45,"normalized_note":1,"velocity":97,"normalized_velocity":1,"on":1},{"midi_time":399360,"actual_time":11.142857142857142,"note":36,"normalized_note":0,"velocity":97,"normalized_velocity":1,"on":1},{"midi_time":407040,"actual_time":11.357142857142858,"note":44,"normalized_note":0.8888888888888888,"velocity":97,"normalized_velocity":1,"on":1},{"midi_time":414720,"actual_time":11.571428571428571,"note":36,"normalized_note":0,"velocity":97,"normalized_velocity":1,"on":1},{"midi_time":414720,"actual_time":11.571428571428571,"note":37,"normalized_note":0.1111111111111111,"velocity":97,"normalized_velocity":1,"on":1},{"midi_time":426240,"actual_time":11.892857142857142,"note":41,"normalized_note":0.5555555555555556,"velocity":97,"normalized_velocity":1,"on":1},{"midi_time":430080,"actual_time":12,"note":36,"normalized_note":0,"velocity":97,"normalized_velocity":1,"on":1},{"midi_time":430080,"actual_time":12,"note":43,"normalized_note":0.7777777777777778,"velocity":97,"normalized_velocity":1,"on":1},{"midi_time":445440,"actual_time":12.428571428571429,"note":36,"normalized_note":0,"velocity":97,"normalized_velocity":1,"on":1},{"midi_time":445440,"actual_time":12.428571428571429,"note":37,"normalized_note":0.1111111111111111,"velocity":97,"normalized_velocity":1,"on":1},{"midi_time":445440,"actual_time":12.428571428571429,"note":45,"normalized_note":1,"velocity":97,"normalized_velocity":1,"on":1},{"midi_time":460800,"actual_time":12.857142857142858,"note":36,"normalized_note":0,"velocity":97,"normalized_velocity":1,"on":1},{"midi_time":468480,"actual_time":13.071428571428571,"note":44,"normalized_note":0.8888888888888888,"velocity":97,"normalized_velocity":1,"on":1},{"midi_time":476160,"actual_time":13.285714285714286,"note":36,"normalized_note":0,"velocity":97,"normalized_velocity":1,"on":1},{"midi_time":476160,"actual_time":13.285714285714286,"note":37,"normalized_note":0.1111111111111111,"velocity":97,"normalized_velocity":1,"on":1},{"midi_time":487680,"actual_time":13.607142857142858,"note":41,"normalized_note":0.5555555555555556,"velocity":96,"normalized_velocity":0,"on":1},{"midi_time":491520,"actual_time":13.714285714285714,"note":36,"normalized_note":0,"velocity":97,"normalized_velocity":1,"on":1},{"midi_time":491520,"actual_time":13.714285714285714,"note":43,"normalized_note":0.7777777777777778,"velocity":97,"normalized_velocity":1,"on":1},{"midi_time":506880,"actual_time":14.142857142857142,"note":36,"normalized_note":0,"velocity":97,"normalized_velocity":1,"on":1},{"midi_time":506880,"actual_time":14.142857142857142,"note":37,"normalized_note":0.1111111111111111,"velocity":97,"normalized_velocity":1,"on":1},{"midi_time":506880,"actual_time":14.142857142857142,"note":45,"normalized_note":1,"velocity":97,"normalized_velocity":1,"on":1},{"midi_time":522240,"actual_time":14.571428571428571,"note":36,"normalized_note":0,"velocity":97,"normalized_velocity":1,"on":1},{"midi_time":529920,"actual_time":14.785714285714286,"note":44,"normalized_note":0.8888888888888888,"velocity":97,"normalized_velocity":1,"on":1},{"midi_time":537600,"actual_time":15,"note":36,"normalized_note":0,"velocity":97,"normalized_velocity":1,"on":1},{"midi_time":537600,"actual_time":15,"note":37,"normalized_note":0.1111111111111111,"velocity":97,"normalized_velocity":1,"on":1},{"midi_time":549120,"actual_time":15.321428571428571,"note":41,"normalized_note":0.5555555555555556,"velocity":97,"normalized_velocity":1,"on":1},{"midi_time":552960,"actual_time":15.428571428571429,"note":36,"normalized_note":0,"velocity":97,"normalized_velocity":1,"on":1},{"midi_time":552960,"actual_time":15.428571428571429,"note":43,"normalized_note":0.7777777777777778,"velocity":97,"normalized_velocity":1,"on":1},{"midi_time":568320,"actual_time":15.857142857142858,"note":36,"normalized_note":0,"velocity":97,"normalized_velocity":1,"on":1},{"midi_time":568320,"actual_time":15.857142857142858,"note":37,"normalized_note":0.1111111111111111,"velocity":97,"normalized_velocity":1,"on":1},{"midi_time":568320,"actual_time":15.857142857142858,"note":45,"normalized_note":1,"velocity":97,"normalized_velocity":1,"on":1},{"midi_time":583680,"actual_time":16.285714285714285,"note":36,"normalized_note":0,"velocity":97,"normalized_velocity":1,"on":1},{"midi_time":591360,"actual_time":16.5,"note":44,"normalized_note":0.8888888888888888,"velocity":97,"normalized_velocity":1,"on":1},{"midi_time":599040,"actual_time":16.714285714285715,"note":36,"normalized_note":0,"velocity":97,"normalized_velocity":1,"on":1},{"midi_time":599040,"actual_time":16.714285714285715,"note":37,"normalized_note":0.1111111111111111,"velocity":97,"normalized_velocity":1,"on":1},{"midi_time":610560,"actual_time":17.035714285714285,"note":41,"normalized_note":0.5555555555555556,"velocity":96,"normalized_velocity":0,"on":1},{"midi_time":614400,"actual_time":17.142857142857142,"note":36,"normalized_note":0,"velocity":97,"normalized_velocity":1,"on":1},{"midi_time":614400,"actual_time":17.142857142857142,"note":43,"normalized_note":0.7777777777777778,"velocity":97,"normalized_velocity":1,"on":1},{"midi_time":629760,"actual_time":17.571428571428573,"note":36,"normalized_note":0,"velocity":97,"normalized_velocity":1,"on":1},{"midi_time":629760,"actual_time":17.571428571428573,"note":37,"normalized_note":0.1111111111111111,"velocity":97,"normalized_velocity":1,"on":1},{"midi_time":629760,"actual_time":17.571428571428573,"note":45,"normalized_note":1,"velocity":97,"normalized_velocity":1,"on":1},{"midi_time":645120,"actual_time":18,"note":36,"normalized_note":0,"velocity":97,"normalized_velocity":1,"on":1},{"midi_time":652800,"actual_time":18.214285714285715,"note":44,"normalized_note":0.8888888888888888,"velocity":97,"normalized_velocity":1,"on":1},{"midi_time":660480,"actual_time":18.428571428571427,"note":36,"normalized_note":0,"velocity":97,"normalized_velocity":1,"on":1},{"midi_time":660480,"actual_time":18.428571428571427,"note":37,"normalized_note":0.1111111111111111,"velocity":97,"normalized_velocity":1,"on":1},{"midi_time":672000,"actual_time":18.75,"note":41,"normalized_note":0.5555555555555556,"velocity":97,"normalized_velocity":1,"on":1},{"midi_time":675840,"actual_time":18.857142857142858,"note":36,"normalized_note":0,"velocity":97,"normalized_velocity":1,"on":1},{"midi_time":675840,"actual_time":18.857142857142858,"note":43,"normalized_note":0.7777777777777778,"velocity":97,"normalized_velocity":1,"on":1},{"midi_time":691200,"actual_time":19.285714285714285,"note":36,"normalized_note":0,"velocity":97,"normalized_velocity":1,"on":1},{"midi_time":691200,"actual_time":19.285714285714285,"note":37,"normalized_note":0.1111111111111111,"velocity":97,"normalized_velocity":1,"on":1},{"midi_time":691200,"actual_time":19.285714285714285,"note":45,"normalized_note":1,"velocity":97,"normalized_velocity":1,"on":1},{"midi_time":706560,"actual_time":19.714285714285715,"note":36,"normalized_note":0,"velocity":97,"normalized_velocity":1,"on":1},{"midi_time":714240,"actual_time":19.928571428571427,"note":44,"normalized_note":0.8888888888888888,"velocity":97,"normalized_velocity":1,"on":1},{"midi_time":721920,"actual_time":20.142857142857142,"note":36,"normalized_note":0,"velocity":97,"normalized_velocity":1,"on":1},{"midi_time":721920,"actual_time":20.142857142857142,"note":37,"normalized_note":0.1111111111111111,"velocity":97,"normalized_velocity":1,"on":1},{"midi_time":733440,"actual_time":20.464285714285715,"note":41,"normalized_note":0.5555555555555556,"velocity":96,"normalized_velocity":0,"on":1},{"midi_time":737280,"actual_time":20.571428571428573,"note":36,"normalized_note":0,"velocity":97,"normalized_velocity":1,"on":1},{"midi_time":737280,"actual_time":20.571428571428573,"note":43,"normalized_note":0.7777777777777778,"velocity":97,"normalized_velocity":1,"on":1},{"midi_time":752640,"actual_time":21,"note":36,"normalized_note":0,"velocity":97,"normalized_velocity":1,"on":1},{"midi_time":752640,"actual_time":21,"note":37,"normalized_note":0.1111111111111111,"velocity":97,"normalized_velocity":1,"on":1},{"midi_time":752640,"actual_time":21,"note":45,"normalized_note":1,"velocity":97,"normalized_velocity":1,"on":1},{"midi_time":768000,"actual_time":21.428571428571427,"note":36,"normalized_note":0,"velocity":97,"normalized_velocity":1,"on":1},{"midi_time":775680,"actual_time":21.642857142857142,"note":44,"normalized_note":0.8888888888888888,"velocity":97,"normalized_velocity":1,"on":1},{"midi_time":783360,"actual_time":21.857142857142858,"note":36,"normalized_note":0,"velocity":97,"normalized_velocity":1,"on":1},{"midi_time":783360,"actual_time":21.857142857142858,"note":37,"normalized_note":0.1111111111111111,"velocity":97,"normalized_velocity":1,"on":1},{"midi_time":794880,"actual_time":22.178571428571427,"note":41,"normalized_note":0.5555555555555556,"velocity":97,"normalized_velocity":1,"on":1},{"midi_time":798720,"actual_time":22.285714285714285,"note":36,"normalized_note":0,"velocity":97,"normalized_velocity":1,"on":1},{"midi_time":798720,"actual_time":22.285714285714285,"note":43,"normalized_note":0.7777777777777778,"velocity":97,"normalized_velocity":1,"on":1},{"midi_time":814080,"actual_time":22.714285714285715,"note":36,"normalized_note":0,"velocity":97,"normalized_velocity":1,"on":1},{"midi_time":814080,"actual_time":22.714285714285715,"note":37,"normalized_note":0.1111111111111111,"velocity":97,"normalized_velocity":1,"on":1},{"midi_time":814080,"actual_time":22.714285714285715,"note":45,"normalized_note":1,"velocity":97,"normalized_velocity":1,"on":1},{"midi_time":829440,"actual_time":23.142857142857142,"note":36,"normalized_note":0,"velocity":97,"normalized_velocity":1,"on":1},{"midi_time":837120,"actual_time":23.357142857142858,"note":44,"normalized_note":0.8888888888888888,"velocity":97,"normalized_velocity":1,"on":1},{"midi_time":844800,"actual_time":23.571428571428573,"note":36,"normalized_note":0,"velocity":97,"normalized_velocity":1,"on":1},{"midi_time":844800,"actual_time":23.571428571428573,"note":37,"normalized_note":0.1111111111111111,"velocity":97,"normalized_velocity":1,"on":1},{"midi_time":856320,"actual_time":23.892857142857142,"note":41,"normalized_note":0.5555555555555556,"velocity":96,"normalized_velocity":0,"on":1},{"midi_time":860160,"actual_time":24,"note":36,"normalized_note":0,"velocity":97,"normalized_velocity":1,"on":1},{"midi_time":860160,"actual_time":24,"note":43,"normalized_note":0.7777777777777778,"velocity":97,"normalized_velocity":1,"on":1},{"midi_time":875520,"actual_time":24.428571428571427,"note":36,"normalized_note":0,"velocity":97,"normalized_velocity":1,"on":1},{"midi_time":875520,"actual_time":24.428571428571427,"note":37,"normalized_note":0.1111111111111111,"velocity":97,"normalized_velocity":1,"on":1},{"midi_time":875520,"actual_time":24.428571428571427,"note":45,"normalized_note":1,"velocity":97,"normalized_velocity":1,"on":1},{"midi_time":890880,"actual_time":24.857142857142858,"note":36,"normalized_note":0,"velocity":97,"normalized_velocity":1,"on":1},{"midi_time":898560,"actual_time":25.071428571428573,"note":44,"normalized_note":0.8888888888888888,"velocity":97,"normalized_velocity":1,"on":1},{"midi_time":906240,"actual_time":25.285714285714285,"note":36,"normalized_note":0,"velocity":97,"normalized_velocity":1,"on":1},{"midi_time":906240,"actual_time":25.285714285714285,"note":37,"normalized_note":0.1111111111111111,"velocity":97,"normalized_velocity":1,"on":1},{"midi_time":917760,"actual_time":25.607142857142858,"note":41,"normalized_note":0.5555555555555556,"velocity":97,"normalized_velocity":1,"on":1},{"midi_time":921600,"actual_time":25.714285714285715,"note":36,"normalized_note":0,"velocity":97,"normalized_velocity":1,"on":1},{"midi_time":921600,"actual_time":25.714285714285715,"note":43,"normalized_note":0.7777777777777778,"velocity":97,"normalized_velocity":1,"on":1},{"midi_time":936960,"actual_time":26.142857142857142,"note":36,"normalized_note":0,"velocity":97,"normalized_velocity":1,"on":1},{"midi_time":936960,"actual_time":26.142857142857142,"note":37,"normalized_note":0.1111111111111111,"velocity":97,"normalized_velocity":1,"on":1},{"midi_time":936960,"actual_time":26.142857142857142,"note":45,"normalized_note":1,"velocity":97,"normalized_velocity":1,"on":1},{"midi_time":952320,"actual_time":26.571428571428573,"note":36,"normalized_note":0,"velocity":97,"normalized_velocity":1,"on":1},{"midi_time":960000,"actual_time":26.785714285714285,"note":44,"normalized_note":0.8888888888888888,"velocity":97,"normalized_velocity":1,"on":1},{"midi_time":967680,"actual_time":27,"note":36,"normalized_note":0,"velocity":97,"normalized_velocity":1,"on":1},{"midi_time":967680,"actual_time":27,"note":37,"normalized_note":0.1111111111111111,"velocity":97,"normalized_velocity":1,"on":1},{"midi_time":979200,"actual_time":27.321428571428573,"note":41,"normalized_note":0.5555555555555556,"velocity":96,"normalized_velocity":0,"on":1},{"midi_time":983040,"actual_time":27.428571428571427,"note":36,"normalized_note":0,"velocity":97,"normalized_velocity":1,"on":1},{"midi_time":983040,"actual_time":27.428571428571427,"note":43,"normalized_note":0.7777777777777778,"velocity":97,"normalized_velocity":1,"on":1},{"midi_time":998400,"actual_time":27.857142857142858,"note":45,"normalized_note":1,"velocity":97,"normalized_velocity":1,"on":1},{"midi_time":1013760,"actual_time":28.285714285714285,"note":36,"normalized_note":0,"velocity":97,"normalized_velocity":1,"on":1},{"midi_time":1021440,"actual_time":28.5,"note":44,"normalized_note":0.8888888888888888,"velocity":97,"normalized_velocity":1,"on":1},{"midi_time":1040640,"actual_time":29.035714285714285,"note":41,"normalized_note":0.5555555555555556,"velocity":97,"normalized_velocity":1,"on":1},{"midi_time":1044480,"actual_time":29.142857142857142,"note":36,"normalized_note":0,"velocity":97,"normalized_velocity":1,"on":1},{"midi_time":1044480,"actual_time":29.142857142857142,"note":43,"normalized_note":0.7777777777777778,"velocity":97,"normalized_velocity":1,"on":1},{"midi_time":1059840,"actual_time":29.571428571428573,"note":45,"normalized_note":1,"velocity":97,"normalized_velocity":1,"on":1},{"midi_time":1075200,"actual_time":30,"note":36,"normalized_note":0,"velocity":97,"normalized_velocity":1,"on":1},{"midi_time":1082880,"actual_time":30.214285714285715,"note":44,"normalized_note":0.8888888888888888,"velocity":97,"normalized_velocity":1,"on":1},{"midi_time":1102080,"actual_time":30.75,"note":41,"normalized_note":0.5555555555555556,"velocity":96,"normalized_velocity":0,"on":1},{"midi_time":1105920,"actual_time":30.857142857142858,"note":36,"normalized_note":0,"velocity":97,"normalized_velocity":1,"on":1},{"midi_time":1105920,"actual_time":30.857142857142858,"note":43,"normalized_note":0.7777777777777778,"velocity":97,"normalized_velocity":1,"on":1},{"midi_time":1121280,"actual_time":31.285714285714285,"note":45,"normalized_note":1,"velocity":97,"normalized_velocity":1,"on":1},{"midi_time":1136640,"actual_time":31.714285714285715,"note":36,"normalized_note":0,"velocity":97,"normalized_velocity":1,"on":1},{"midi_time":1144320,"actual_time":31.928571428571427,"note":44,"normalized_note":0.8888888888888888,"velocity":97,"normalized_velocity":1,"on":1},{"midi_time":1163520,"actual_time":32.464285714285715,"note":41,"normalized_note":0.5555555555555556,"velocity":97,"normalized_velocity":1,"on":1},{"midi_time":1167360,"actual_time":32.57142857142857,"note":36,"normalized_note":0,"velocity":97,"normalized_velocity":1,"on":1},{"midi_time":1167360,"actual_time":32.57142857142857,"note":43,"normalized_note":0.7777777777777778,"velocity":97,"normalized_velocity":1,"on":1},{"midi_time":1182720,"actual_time":33,"note":45,"normalized_note":1,"velocity":97,"normalized_velocity":1,"on":1},{"midi_time":1198080,"actual_time":33.42857142857143,"note":36,"normalized_note":0,"velocity":97,"normalized_velocity":1,"on":1},{"midi_time":1205760,"actual_time":33.642857142857146,"note":44,"normalized_note":0.8888888888888888,"velocity":97,"normalized_velocity":1,"on":1},{"midi_time":1224960,"actual_time":34.17857142857143,"note":41,"normalized_note":0.5555555555555556,"velocity":96,"normalized_velocity":0,"on":1}],[{"midi_time":122880,"actual_time":3.4285714285714284,"note":36,"normalized_note":0,"velocity":100,"normalized_velocity":null,"on":1},{"midi_time":130560,"actual_time":3.642857142857143,"note":36,"normalized_note":0,"velocity":100,"normalized_velocity":null,"on":1},{"midi_time":138240,"actual_time":3.857142857142857,"note":36,"normalized_note":0,"velocity":100,"normalized_velocity":null,"on":1},{"midi_time":145920,"actual_time":4.071428571428571,"note":36,"normalized_note":0,"velocity":100,"normalized_velocity":null,"on":1},{"midi_time":153600,"actual_time":4.285714285714286,"note":43,"normalized_note":1,"velocity":100,"normalized_velocity":null,"on":1},{"midi_time":161280,"actual_time":4.5,"note":43,"normalized_note":1,"velocity":100,"normalized_velocity":null,"on":1},{"midi_time":168960,"actual_time":4.714285714285714,"note":43,"normalized_note":1,"velocity":100,"normalized_velocity":null,"on":1},{"midi_time":176640,"actual_time":4.928571428571429,"note":43,"normalized_note":1,"velocity":100,"normalized_velocity":null,"on":1},{"midi_time":184320,"actual_time":5.142857142857143,"note":41,"normalized_note":0.7142857142857143,"velocity":100,"normalized_velocity":null,"on":1},{"midi_time":192000,"actual_time":5.357142857142857,"note":41,"normalized_note":0.7142857142857143,"velocity":100,"normalized_velocity":null,"on":1},{"midi_time":199680,"actual_time":5.571428571428571,"note":41,"normalized_note":0.7142857142857143,"velocity":100,"normalized_velocity":null,"on":1},{"midi_time":207360,"actual_time":5.785714285714286,"note":41,"normalized_note":0.7142857142857143,"velocity":100,"normalized_velocity":null,"on":1},{"midi_time":215040,"actual_time":6,"note":43,"normalized_note":1,"velocity":100,"normalized_velocity":null,"on":1},{"midi_time":222720,"actual_time":6.214285714285714,"note":43,"normalized_note":1,"velocity":100,"normalized_velocity":null,"on":1},{"midi_time":230400,"actual_time":6.428571428571429,"note":43,"normalized_note":1,"velocity":100,"normalized_velocity":null,"on":1},{"midi_time":238080,"actual_time":6.642857142857143,"note":43,"normalized_note":1,"velocity":100,"normalized_velocity":null,"on":1},{"midi_time":245760,"actual_time":6.857142857142857,"note":36,"normalized_note":0,"velocity":100,"normalized_velocity":null,"on":1},{"midi_time":261120,"actual_time":7.285714285714286,"note":36,"normalized_note":0,"velocity":100,"normalized_velocity":null,"on":1},{"midi_time":276480,"actual_time":7.714285714285714,"note":36,"normalized_note":0,"velocity":100,"normalized_velocity":null,"on":1},{"midi_time":291840,"actual_time":8.142857142857142,"note":36,"normalized_note":0,"velocity":100,"normalized_velocity":null,"on":1},{"midi_time":307200,"actual_time":8.571428571428571,"note":36,"normalized_note":0,"velocity":100,"normalized_velocity":null,"on":1},{"midi_time":322560,"actual_time":9,"note":36,"normalized_note":0,"velocity":100,"normalized_velocity":null,"on":1},{"midi_time":337920,"actual_time":9.428571428571429,"note":36,"normalized_note":0,"velocity":100,"normalized_velocity":null,"on":1},{"midi_time":345600,"actual_time":9.642857142857142,"note":36,"normalized_note":0,"velocity":100,"normalized_velocity":null,"on":1},{"midi_time":353280,"actual_time":9.857142857142858,"note":36,"normalized_note":0,"velocity":100,"normalized_velocity":null,"on":1},{"midi_time":368640,"actual_time":10.285714285714286,"note":36,"normalized_note":0,"velocity":100,"normalized_velocity":null,"on":1},{"midi_time":376320,"actual_time":10.5,"note":36,"normalized_note":0,"velocity":100,"normalized_velocity":null,"on":1},{"midi_time":384000,"actual_time":10.714285714285714,"note":36,"normalized_note":0,"velocity":100,"normalized_velocity":null,"on":1},{"midi_time":391680,"actual_time":10.928571428571429,"note":36,"normalized_note":0,"velocity":100,"normalized_velocity":null,"on":1},{"midi_time":399360,"actual_time":11.142857142857142,"note":41,"normalized_note":0.7142857142857143,"velocity":100,"normalized_velocity":null,"on":1},{"midi_time":407040,"actual_time":11.357142857142858,"note":41,"normalized_note":0.7142857142857143,"velocity":100,"normalized_velocity":null,"on":1},{"midi_time":414720,"actual_time":11.571428571428571,"note":41,"normalized_note":0.7142857142857143,"velocity":100,"normalized_velocity":null,"on":1},{"midi_time":422400,"actual_time":11.785714285714286,"note":41,"normalized_note":0.7142857142857143,"velocity":100,"normalized_velocity":null,"on":1},{"midi_time":430080,"actual_time":12,"note":40,"normalized_note":0.5714285714285714,"velocity":100,"normalized_velocity":null,"on":1},{"midi_time":437760,"actual_time":12.214285714285714,"note":40,"normalized_note":0.5714285714285714,"velocity":100,"normalized_velocity":null,"on":1},{"midi_time":445440,"actual_time":12.428571428571429,"note":40,"normalized_note":0.5714285714285714,"velocity":100,"normalized_velocity":null,"on":1},{"midi_time":453120,"actual_time":12.642857142857142,"note":40,"normalized_note":0.5714285714285714,"velocity":100,"normalized_velocity":null,"on":1},{"midi_time":460800,"actual_time":12.857142857142858,"note":43,"normalized_note":1,"velocity":100,"normalized_velocity":null,"on":1},{"midi_time":468480,"actual_time":13.071428571428571,"note":43,"normalized_note":1,"velocity":100,"normalized_velocity":null,"on":1},{"midi_time":476160,"actual_time":13.285714285714286,"note":43,"normalized_note":1,"velocity":100,"normalized_velocity":null,"on":1},{"midi_time":483840,"actual_time":13.5,"note":43,"normalized_note":1,"velocity":100,"normalized_velocity":null,"on":1},{"midi_time":491520,"actual_time":13.714285714285714,"note":36,"normalized_note":0,"velocity":100,"normalized_velocity":null,"on":1},{"midi_time":499200,"actual_time":13.928571428571429,"note":36,"normalized_note":0,"velocity":100,"normalized_velocity":null,"on":1},{"midi_time":506880,"actual_time":14.142857142857142,"note":36,"normalized_note":0,"velocity":100,"normalized_velocity":null,"on":1},{"midi_time":514560,"actual_time":14.357142857142858,"note":36,"normalized_note":0,"velocity":100,"normalized_velocity":null,"on":1},{"midi_time":522240,"actual_time":14.571428571428571,"note":43,"normalized_note":1,"velocity":100,"normalized_velocity":null,"on":1},{"midi_time":529920,"actual_time":14.785714285714286,"note":43,"normalized_note":1,"velocity":100,"normalized_velocity":null,"on":1},{"midi_time":537600,"actual_time":15,"note":43,"normalized_note":1,"velocity":100,"normalized_velocity":null,"on":1},{"midi_time":545280,"actual_time":15.214285714285714,"note":43,"normalized_note":1,"velocity":100,"normalized_velocity":null,"on":1},{"midi_time":552960,"actual_time":15.428571428571429,"note":41,"normalized_note":0.7142857142857143,"velocity":100,"normalized_velocity":null,"on":1},{"midi_time":560640,"actual_time":15.642857142857142,"note":41,"normalized_note":0.7142857142857143,"velocity":100,"normalized_velocity":null,"on":1},{"midi_time":568320,"actual_time":15.857142857142858,"note":41,"normalized_note":0.7142857142857143,"velocity":100,"normalized_velocity":null,"on":1},{"midi_time":576000,"actual_time":16.071428571428573,"note":41,"normalized_note":0.7142857142857143,"velocity":100,"normalized_velocity":null,"on":1},{"midi_time":583680,"actual_time":16.285714285714285,"note":43,"normalized_note":1,"velocity":100,"normalized_velocity":null,"on":1},{"midi_time":591360,"actual_time":16.5,"note":43,"normalized_note":1,"velocity":100,"normalized_velocity":null,"on":1},{"midi_time":599040,"actual_time":16.714285714285715,"note":43,"normalized_note":1,"velocity":100,"normalized_velocity":null,"on":1},{"midi_time":606720,"actual_time":16.928571428571427,"note":43,"normalized_note":1,"velocity":100,"normalized_velocity":null,"on":1},{"midi_time":614400,"actual_time":17.142857142857142,"note":36,"normalized_note":0,"velocity":100,"normalized_velocity":null,"on":1},{"midi_time":622080,"actual_time":17.357142857142858,"note":36,"normalized_note":0,"velocity":100,"normalized_velocity":null,"on":1},{"midi_time":629760,"actual_time":17.571428571428573,"note":36,"normalized_note":0,"velocity":100,"normalized_velocity":null,"on":1},{"midi_time":637440,"actual_time":17.785714285714285,"note":36,"normalized_note":0,"velocity":100,"normalized_velocity":null,"on":1},{"midi_time":645120,"actual_time":18,"note":41,"normalized_note":0.7142857142857143,"velocity":100,"normalized_velocity":null,"on":1},{"midi_time":652800,"actual_time":18.214285714285715,"note":41,"normalized_note":0.7142857142857143,"velocity":100,"normalized_velocity":null,"on":1},{"midi_time":660480,"actual_time":18.428571428571427,"note":41,"normalized_note":0.7142857142857143,"velocity":100,"normalized_velocity":null,"on":1},{"midi_time":668160,"actual_time":18.642857142857142,"note":41,"normalized_note":0.7142857142857143,"velocity":100,"normalized_velocity":null,"on":1},{"midi_time":675840,"actual_time":18.857142857142858,"note":40,"normalized_note":0.5714285714285714,"velocity":100,"normalized_velocity":null,"on":1},{"midi_time":683520,"actual_time":19.071428571428573,"note":40,"normalized_note":0.5714285714285714,"velocity":100,"normalized_velocity":null,"on":1},{"midi_time":691200,"actual_time":19.285714285714285,"note":40,"normalized_note":0.5714285714285714,"velocity":100,"normalized_velocity":null,"on":1},{"midi_time":698880,"actual_time":19.5,"note":40,"normalized_note":0.5714285714285714,"velocity":100,"normalized_velocity":null,"on":1},{"midi_time":706560,"actual_time":19.714285714285715,"note":43,"normalized_note":1,"velocity":100,"normalized_velocity":null,"on":1},{"midi_time":714240,"actual_time":19.928571428571427,"note":43,"normalized_note":1,"velocity":100,"normalized_velocity":null,"on":1},{"midi_time":721920,"actual_time":20.142857142857142,"note":43,"normalized_note":1,"velocity":100,"normalized_velocity":null,"on":1},{"midi_time":729600,"actual_time":20.357142857142858,"note":43,"normalized_note":1,"velocity":100,"normalized_velocity":null,"on":1},{"midi_time":737280,"actual_time":20.571428571428573,"note":36,"normalized_note":0,"velocity":100,"normalized_velocity":null,"on":1},{"midi_time":744960,"actual_time":20.785714285714285,"note":36,"normalized_note":0,"velocity":100,"normalized_velocity":null,"on":1},{"midi_time":752640,"actual_time":21,"note":36,"normalized_note":0,"velocity":100,"normalized_velocity":null,"on":1},{"midi_time":760320,"actual_time":21.214285714285715,"note":36,"normalized_note":0,"velocity":100,"normalized_velocity":null,"on":1},{"midi_time":768000,"actual_time":21.428571428571427,"note":43,"normalized_note":1,"velocity":100,"normalized_velocity":null,"on":1},{"midi_time":775680,"actual_time":21.642857142857142,"note":43,"normalized_note":1,"velocity":100,"normalized_velocity":null,"on":1},{"midi_time":783360,"actual_time":21.857142857142858,"note":43,"normalized_note":1,"velocity":100,"normalized_velocity":null,"on":1},{"midi_time":791040,"actual_time":22.071428571428573,"note":43,"normalized_note":1,"velocity":100,"normalized_velocity":null,"on":1},{"midi_time":798720,"actual_time":22.285714285714285,"note":41,"normalized_note":0.7142857142857143,"velocity":100,"normalized_velocity":null,"on":1},{"midi_time":806400,"actual_time":22.5,"note":41,"normalized_note":0.7142857142857143,"velocity":100,"normalized_velocity":null,"on":1},{"midi_time":814080,"actual_time":22.714285714285715,"note":41,"normalized_note":0.7142857142857143,"velocity":100,"normalized_velocity":null,"on":1},{"midi_time":821760,"actual_time":22.928571428571427,"note":41,"normalized_note":0.7142857142857143,"velocity":100,"normalized_velocity":null,"on":1},{"midi_time":829440,"actual_time":23.142857142857142,"note":43,"normalized_note":1,"velocity":100,"normalized_velocity":null,"on":1},{"midi_time":837120,"actual_time":23.357142857142858,"note":43,"normalized_note":1,"velocity":100,"normalized_velocity":null,"on":1},{"midi_time":844800,"actual_time":23.571428571428573,"note":43,"normalized_note":1,"velocity":100,"normalized_velocity":null,"on":1},{"midi_time":852480,"actual_time":23.785714285714285,"note":43,"normalized_note":1,"velocity":100,"normalized_velocity":null,"on":1},{"midi_time":860160,"actual_time":24,"note":36,"normalized_note":0,"velocity":100,"normalized_velocity":null,"on":1},{"midi_time":867840,"actual_time":24.214285714285715,"note":36,"normalized_note":0,"velocity":100,"normalized_velocity":null,"on":1},{"midi_time":875520,"actual_time":24.428571428571427,"note":36,"normalized_note":0,"velocity":100,"normalized_velocity":null,"on":1},{"midi_time":883200,"actual_time":24.642857142857142,"note":36,"normalized_note":0,"velocity":100,"normalized_velocity":null,"on":1},{"midi_time":890880,"actual_time":24.857142857142858,"note":41,"normalized_note":0.7142857142857143,"velocity":100,"normalized_velocity":null,"on":1},{"midi_time":898560,"actual_time":25.071428571428573,"note":41,"normalized_note":0.7142857142857143,"velocity":100,"normalized_velocity":null,"on":1},{"midi_time":906240,"actual_time":25.285714285714285,"note":41,"normalized_note":0.7142857142857143,"velocity":100,"normalized_velocity":null,"on":1},{"midi_time":913920,"actual_time":25.5,"note":41,"normalized_note":0.7142857142857143,"velocity":100,"normalized_velocity":null,"on":1},{"midi_time":921600,"actual_time":25.714285714285715,"note":40,"normalized_note":0.5714285714285714,"velocity":100,"normalized_velocity":null,"on":1},{"midi_time":929280,"actual_time":25.928571428571427,"note":40,"normalized_note":0.5714285714285714,"velocity":100,"normalized_velocity":null,"on":1},{"midi_time":936960,"actual_time":26.142857142857142,"note":40,"normalized_note":0.5714285714285714,"velocity":100,"normalized_velocity":null,"on":1},{"midi_time":944640,"actual_time":26.357142857142858,"note":40,"normalized_note":0.5714285714285714,"velocity":100,"normalized_velocity":null,"on":1},{"midi_time":952320,"actual_time":26.571428571428573,"note":43,"normalized_note":1,"velocity":100,"normalized_velocity":null,"on":1},{"midi_time":960000,"actual_time":26.785714285714285,"note":43,"normalized_note":1,"velocity":100,"normalized_velocity":null,"on":1},{"midi_time":967680,"actual_time":27,"note":43,"normalized_note":1,"velocity":100,"normalized_velocity":null,"on":1},{"midi_time":975360,"actual_time":27.214285714285715,"note":43,"normalized_note":1,"velocity":100,"normalized_velocity":null,"on":1},{"midi_time":983040,"actual_time":27.428571428571427,"note":36,"normalized_note":0,"velocity":100,"normalized_velocity":null,"on":1}],[{"midi_time":245760,"actual_time":6.857142857142857,"note":84,"normalized_note":0,"velocity":81,"normalized_velocity":0.7659574468085106,"on":1},{"midi_time":276480,"actual_time":7.714285714285714,"note":91,"normalized_note":0.7777777777777778,"velocity":56,"normalized_velocity":0.23404255319148937,"on":1},{"midi_time":299520,"actual_time":8.357142857142858,"note":88,"normalized_note":0.4444444444444444,"velocity":45,"normalized_velocity":0,"on":1},{"midi_time":307200,"actual_time":8.571428571428571,"note":93,"normalized_note":1,"velocity":60,"normalized_velocity":0.3191489361702128,"on":1},{"midi_time":330240,"actual_time":9.214285714285714,"note":88,"normalized_note":0.4444444444444444,"velocity":51,"normalized_velocity":0.1276595744680851,"on":1},{"midi_time":337920,"actual_time":9.428571428571429,"note":91,"normalized_note":0.7777777777777778,"velocity":57,"normalized_velocity":0.2553191489361702,"on":1},{"midi_time":491520,"actual_time":13.714285714285714,"note":84,"normalized_note":0,"velocity":81,"normalized_velocity":0.7659574468085106,"on":1},{"midi_time":522240,"actual_time":14.571428571428571,"note":91,"normalized_note":0.7777777777777778,"velocity":56,"normalized_velocity":0.23404255319148937,"on":1},{"midi_time":545280,"actual_time":15.214285714285714,"note":88,"normalized_note":0.4444444444444444,"velocity":45,"normalized_velocity":0,"on":1},{"midi_time":552960,"actual_time":15.428571428571429,"note":93,"normalized_note":1,"velocity":60,"normalized_velocity":0.3191489361702128,"on":1},{"midi_time":576000,"actual_time":16.071428571428573,"note":88,"normalized_note":0.4444444444444444,"velocity":51,"normalized_velocity":0.1276595744680851,"on":1},{"midi_time":583680,"actual_time":16.285714285714285,"note":91,"normalized_note":0.7777777777777778,"velocity":57,"normalized_velocity":0.2553191489361702,"on":1},{"midi_time":737280,"actual_time":20.571428571428573,"note":84,"normalized_note":0,"velocity":90,"normalized_velocity":0.9574468085106383,"on":1},{"midi_time":768000,"actual_time":21.428571428571427,"note":91,"normalized_note":0.7777777777777778,"velocity":91,"normalized_velocity":0.9787234042553191,"on":1},{"midi_time":791040,"actual_time":22.071428571428573,"note":88,"normalized_note":0.4444444444444444,"velocity":89,"normalized_velocity":0.9361702127659575,"on":1},{"midi_time":798720,"actual_time":22.285714285714285,"note":93,"normalized_note":1,"velocity":90,"normalized_velocity":0.9574468085106383,"on":1},{"midi_time":821760,"actual_time":22.928571428571427,"note":88,"normalized_note":0.4444444444444444,"velocity":90,"normalized_velocity":0.9574468085106383,"on":1},{"midi_time":829440,"actual_time":23.142857142857142,"note":91,"normalized_note":0.7777777777777778,"velocity":90,"normalized_velocity":0.9574468085106383,"on":1},{"midi_time":860160,"actual_time":24,"note":88,"normalized_note":0.4444444444444444,"velocity":89,"normalized_velocity":0.9361702127659575,"on":1},{"midi_time":890880,"actual_time":24.857142857142858,"note":89,"normalized_note":0.5555555555555556,"velocity":90,"normalized_velocity":0.9574468085106383,"on":1},{"midi_time":913920,"actual_time":25.5,"note":88,"normalized_note":0.4444444444444444,"velocity":92,"normalized_velocity":1,"on":1},{"midi_time":921600,"actual_time":25.714285714285715,"note":86,"normalized_note":0.2222222222222222,"velocity":91,"normalized_velocity":0.9787234042553191,"on":1},{"midi_time":944640,"actual_time":26.357142857142858,"note":88,"normalized_note":0.4444444444444444,"velocity":91,"normalized_velocity":0.9787234042553191,"on":1},{"midi_time":952320,"actual_time":26.571428571428573,"note":91,"normalized_note":0.7777777777777778,"velocity":92,"normalized_velocity":1,"on":1},{"midi_time":975360,"actual_time":27.214285714285715,"note":88,"normalized_note":0.4444444444444444,"velocity":90,"normalized_velocity":0.9574468085106383,"on":1},{"midi_time":983040,"actual_time":27.428571428571427,"note":84,"normalized_note":0,"velocity":81,"normalized_velocity":0.7659574468085106,"on":1},{"midi_time":1013760,"actual_time":28.285714285714285,"note":91,"normalized_note":0.7777777777777778,"velocity":56,"normalized_velocity":0.23404255319148937,"on":1},{"midi_time":1036800,"actual_time":28.928571428571427,"note":88,"normalized_note":0.4444444444444444,"velocity":45,"normalized_velocity":0,"on":1},{"midi_time":1044480,"actual_time":29.142857142857142,"note":93,"normalized_note":1,"velocity":60,"normalized_velocity":0.3191489361702128,"on":1},{"midi_time":1067520,"actual_time":29.785714285714285,"note":88,"normalized_note":0.4444444444444444,"velocity":51,"normalized_velocity":0.1276595744680851,"on":1},{"midi_time":1075200,"actual_time":30,"note":91,"normalized_note":0.7777777777777778,"velocity":57,"normalized_velocity":0.2553191489361702,"on":1}],[{"midi_time":491520,"actual_time":13.714285714285714,"note":60,"normalized_note":0,"velocity":100,"normalized_velocity":null,"on":1},{"midi_time":491520,"actual_time":13.714285714285714,"note":67,"normalized_note":0.3684210526315789,"velocity":100,"normalized_velocity":null,"on":1},{"midi_time":506880,"actual_time":14.142857142857142,"note":69,"normalized_note":0.47368421052631576,"velocity":100,"normalized_velocity":null,"on":1},{"midi_time":506880,"actual_time":14.142857142857142,"note":74,"normalized_note":0.7368421052631579,"velocity":100,"normalized_velocity":null,"on":1},{"midi_time":522240,"actual_time":14.571428571428571,"note":72,"normalized_note":0.631578947368421,"velocity":100,"normalized_velocity":null,"on":1},{"midi_time":522240,"actual_time":14.571428571428571,"note":79,"normalized_note":1,"velocity":100,"normalized_velocity":null,"on":1},{"midi_time":583680,"actual_time":16.285714285714285,"note":72,"normalized_note":0.631578947368421,"velocity":100,"normalized_velocity":null,"on":1},{"midi_time":583680,"actual_time":16.285714285714285,"note":79,"normalized_note":1,"velocity":100,"normalized_velocity":null,"on":1},{"midi_time":599040,"actual_time":16.714285714285715,"note":74,"normalized_note":0.7368421052631579,"velocity":100,"normalized_velocity":null,"on":1},{"midi_time":599040,"actual_time":16.714285714285715,"note":77,"normalized_note":0.8947368421052632,"velocity":100,"normalized_velocity":null,"on":1},{"midi_time":614400,"actual_time":17.142857142857142,"note":72,"normalized_note":0.631578947368421,"velocity":100,"normalized_velocity":null,"on":1},{"midi_time":614400,"actual_time":17.142857142857142,"note":76,"normalized_note":0.8421052631578947,"velocity":100,"normalized_velocity":null,"on":1},{"midi_time":675840,"actual_time":18.857142857142858,"note":67,"normalized_note":0.3684210526315789,"velocity":100,"normalized_velocity":null,"on":1},{"midi_time":675840,"actual_time":18.857142857142858,"note":74,"normalized_note":0.7368421052631579,"velocity":100,"normalized_velocity":null,"on":1},{"midi_time":706560,"actual_time":19.714285714285715,"note":72,"normalized_note":0.631578947368421,"velocity":100,"normalized_velocity":null,"on":1},{"midi_time":706560,"actual_time":19.714285714285715,"note":79,"normalized_note":1,"velocity":100,"normalized_velocity":null,"on":1},{"midi_time":737280,"actual_time":20.571428571428573,"note":60,"normalized_note":0,"velocity":100,"normalized_velocity":null,"on":1},{"midi_time":737280,"actual_time":20.571428571428573,"note":67,"normalized_note":0.3684210526315789,"velocity":100,"normalized_velocity":null,"on":1},{"midi_time":752640,"actual_time":21,"note":69,"normalized_note":0.47368421052631576,"velocity":100,"normalized_velocity":null,"on":1},{"midi_time":752640,"actual_time":21,"note":74,"normalized_note":0.7368421052631579,"velocity":100,"normalized_velocity":null,"on":1},{"midi_time":768000,"actual_time":21.428571428571427,"note":72,"normalized_note":0.631578947368421,"velocity":100,"normalized_velocity":null,"on":1},{"midi_time":768000,"actual_time":21.428571428571427,"note":79,"normalized_note":1,"velocity":100,"normalized_velocity":null,"on":1},{"midi_time":829440,"actual_time":23.142857142857142,"note":72,"normalized_note":0.631578947368421,"velocity":100,"normalized_velocity":null,"on":1},{"midi_time":829440,"actual_time":23.142857142857142,"note":79,"normalized_note":1,"velocity":100,"normalized_velocity":null,"on":1},{"midi_time":844800,"actual_time":23.571428571428573,"note":74,"normalized_note":0.7368421052631579,"velocity":100,"normalized_velocity":null,"on":1},{"midi_time":844800,"actual_time":23.571428571428573,"note":77,"normalized_note":0.8947368421052632,"velocity":100,"normalized_velocity":null,"on":1},{"midi_time":860160,"actual_time":24,"note":72,"normalized_note":0.631578947368421,"velocity":100,"normalized_velocity":null,"on":1},{"midi_time":860160,"actual_time":24,"note":76,"normalized_note":0.8421052631578947,"velocity":100,"normalized_velocity":null,"on":1},{"midi_time":921600,"actual_time":25.714285714285715,"note":67,"normalized_note":0.3684210526315789,"velocity":100,"normalized_velocity":null,"on":1},{"midi_time":921600,"actual_time":25.714285714285715,"note":74,"normalized_note":0.7368421052631579,"velocity":100,"normalized_velocity":null,"on":1},{"midi_time":952320,"actual_time":26.571428571428573,"note":72,"normalized_note":0.631578947368421,"velocity":100,"normalized_velocity":null,"on":1},{"midi_time":952320,"actual_time":26.571428571428573,"note":79,"normalized_note":1,"velocity":100,"normalized_velocity":null,"on":1}],[{"midi_time":737280,"actual_time":20.571428571428573,"note":79,"normalized_note":1,"velocity":100,"normalized_velocity":null,"on":1},{"midi_time":798720,"actual_time":22.285714285714285,"note":76,"normalized_note":0.5714285714285714,"velocity":100,"normalized_velocity":null,"on":1},{"midi_time":829440,"actual_time":23.142857142857142,"note":74,"normalized_note":0.2857142857142857,"velocity":100,"normalized_velocity":null,"on":1},{"midi_time":860160,"actual_time":24,"note":76,"normalized_note":0.5714285714285714,"velocity":100,"normalized_velocity":null,"on":1},{"midi_time":890880,"actual_time":24.857142857142858,"note":72,"normalized_note":0,"velocity":100,"normalized_velocity":null,"on":1},{"midi_time":921600,"actual_time":25.714285714285715,"note":74,"normalized_note":0.2857142857142857,"velocity":100,"normalized_velocity":null,"on":1}]]